<svg width="20" height="20" fill="none" xmlns="http://www.w3.org/2000/svg"><path d="M18.333 10l-4.167 3.333v-2.5h-7.5V9.167h7.5v-2.5L18.333 10z" fill="#111"/><path d="M9.165 2.5a7.448 7.448 0 015.304 2.197L13.29 5.875a5.796 5.796 0 00-4.125-1.71 5.796 5.796 0 00-4.125 1.71A5.796 5.796 0 003.331 10c0 1.558.608 3.023 1.71 4.125a5.796 5.796 0 004.124 1.71 5.796 5.796 0 004.125-1.71l1.179 1.178a7.449 7.449 0 01-5.304 2.198 7.448 7.448 0 01-5.303-2.198A7.448 7.448 0 011.665 10c0-2.004.78-3.887 2.197-5.303a7.448 7.448 0 015.303-2.198z" fill="#111"/></svg>