<svg width="30" height="30" viewBox="0 0 30 30" fill="none" xmlns="http://www.w3.org/2000/svg">
<path d="M19.4147 10.4937L19.4172 10.495L19.4209 10.4975L19.4147 10.4937ZM6.97217 10.26C7.05913 10.1761 7.15562 10.1026 7.25967 10.0412C7.40698 9.95448 7.57051 9.89888 7.74015 9.87787C7.90979 9.85685 8.08194 9.87084 8.24596 9.91899C8.40998 9.96715 8.56238 10.0484 8.69374 10.1578C8.82509 10.2672 8.93262 10.4024 9.00967 10.555C9.44018 11.4036 10.034 12.1589 10.7572 12.7775C10.6463 12.1544 10.5903 11.5228 10.5897 10.89C10.5873 8.96512 11.095 7.07404 12.0611 5.40923C13.0272 3.74443 14.4173 2.36537 16.0897 1.41245C16.274 1.30774 16.4819 1.25161 16.6938 1.24934C16.9058 1.24707 17.1148 1.29874 17.3013 1.39948C17.4878 1.50023 17.6456 1.64675 17.7599 1.82526C17.8742 2.00377 17.9412 2.20841 17.9547 2.41995C18.0247 3.60508 18.3345 4.76366 18.8654 5.82551C19.3964 6.88737 20.1373 7.83039 21.0434 8.59745L21.3309 8.8312C22.2789 9.46901 23.118 10.2553 23.8159 11.16C24.9006 12.5263 25.6519 14.1267 26.0104 15.834C26.3689 17.5413 26.3246 19.3087 25.8811 20.996C25.4375 22.6832 24.607 24.2439 23.4552 25.5543C22.3035 26.8646 20.8623 27.8886 19.2459 28.545C19.0561 28.6222 18.8503 28.6516 18.6465 28.6306C18.4427 28.6096 18.2472 28.5388 18.0771 28.4245C17.9071 28.3101 17.7678 28.1557 17.6715 27.9749C17.5751 27.7941 17.5247 27.5923 17.5247 27.3875C17.5257 27.255 17.5468 27.1236 17.5872 26.9975C17.8668 25.9463 17.9474 24.852 17.8247 23.7712C16.6416 26.0019 14.7427 27.77 12.4334 28.7912C12.1517 28.9172 11.8332 28.9341 11.5397 28.8387C9.71533 28.2498 8.07186 27.2042 6.76541 25.8012C5.45896 24.3983 4.53291 22.6846 4.07524 20.823C3.61757 18.9614 3.64348 17.0136 4.15051 15.1649C4.65755 13.3161 5.62886 11.6276 6.97217 10.26ZM11.8534 26.2987C12.9431 25.7466 13.9043 24.9713 14.6746 24.0233C15.445 23.0753 16.0072 21.9758 16.3247 20.7962C16.4217 20.399 16.4969 19.9967 16.5497 19.5912C16.5852 19.333 16.7006 19.0924 16.8797 18.903C17.0588 18.7136 17.2926 18.5849 17.5484 18.535C17.6271 18.5197 17.707 18.5121 17.7872 18.5125C18.0068 18.5122 18.2226 18.5699 18.4129 18.6796C18.6031 18.7893 18.7611 18.9472 18.8709 19.1375C19.9079 20.9265 20.4292 22.9678 20.3772 25.035C21.2895 24.3258 22.052 23.4427 22.6204 22.4367C23.1889 21.4307 23.552 20.3219 23.6887 19.1745C23.8254 18.0271 23.7331 16.864 23.417 15.7526C23.1008 14.6412 22.5673 13.6036 21.8472 12.7C21.3004 11.9897 20.6408 11.3741 19.8947 10.8775C19.862 10.8565 19.8307 10.8335 19.8009 10.8087C19.8009 10.8087 19.4309 10.5025 19.4184 10.4962C17.6369 8.99001 16.3697 6.96554 15.7934 4.70495C14.4316 5.96416 13.5237 7.63778 13.2107 9.46591C12.8976 11.294 13.1969 13.1744 14.0622 14.815C14.1767 15.0339 14.2237 15.2819 14.1973 15.5276C14.171 15.7733 14.0724 16.0057 13.914 16.1953C13.7556 16.385 13.5446 16.5235 13.3075 16.5933C13.0705 16.6631 12.8181 16.661 12.5822 16.5875C10.6675 15.987 8.98276 14.8144 7.75467 13.2275C7.0163 14.3177 6.53353 15.5606 6.34234 16.8635C6.15115 18.1663 6.25648 19.4955 6.65047 20.7519C7.04445 22.0084 7.71695 23.1597 8.61782 24.1201C9.51869 25.0805 10.6247 25.8252 11.8534 26.2987Z" fill="#BFD4ED"/>
</svg>
