<svg width="30" height="30" fill="none" xmlns="http://www.w3.org/2000/svg"><path d="M19.415 10.494l.002.001.004.003-.006-.004zM6.972 10.26c.087-.084.184-.157.288-.219a1.25 1.25 0 011.75.514 7.228 7.228 0 001.747 2.223A10.893 10.893 0 0116.09 1.412a1.25 1.25 0 011.865 1.007 8.772 8.772 0 003.088 6.177l.288.234a10.639 10.639 0 012.485 2.329 11.228 11.228 0 01-4.57 17.385 1.25 1.25 0 01-1.659-1.548c.28-1.05.36-2.145.238-3.226a11.255 11.255 0 01-5.392 5.02c-.281.126-.6.143-.893.048A11.243 11.243 0 016.972 10.26zm4.881 16.039a8.704 8.704 0 004.472-5.503c.097-.397.172-.8.225-1.205a1.25 1.25 0 012.32-.454 11.198 11.198 0 011.507 5.898 8.731 8.731 0 001.47-12.335 8.192 8.192 0 00-1.952-1.822.945.945 0 01-.094-.07s-.37-.306-.383-.312a11.21 11.21 0 01-3.625-5.791 8.42 8.42 0 00-1.73 10.11 1.25 1.25 0 01-1.48 1.772 9.82 9.82 0 01-4.828-3.36A8.75 8.75 0 0011.853 26.3z" fill="#BFD4ED"/></svg>