<svg width="20" height="20" fill="none" xmlns="http://www.w3.org/2000/svg"><path d="M10 .4A9.6 9.6 0 00.4 10a9.6 9.6 0 009.6 9.6 9.6 9.6 0 009.6-9.6A9.6 9.6 0 0010 .4zm3.692 10.83s.85.839 1.058 1.228c.006.008.01.016.011.02.085.143.105.254.063.337-.07.138-.31.206-.392.212h-1.5c-.104 0-.322-.027-.586-.21-.203-.141-.403-.374-.598-.601-.29-.338-.543-.63-.797-.63a.303.303 0 00-.095.015c-.192.062-.438.336-.438 1.066 0 .228-.18.359-.307.359h-.687c-.234 0-1.453-.082-2.533-1.221C5.57 10.41 4.38 7.612 4.37 7.585c-.075-.18.08-.277.25-.277h1.514c.202 0 .268.123.314.232.054.127.252.632.577 1.2.527.926.85 1.302 1.11 1.302a.3.3 0 00.138-.036c.338-.188.275-1.393.26-1.643 0-.047 0-.54-.174-.775-.124-.171-.335-.236-.463-.26a.55.55 0 01.2-.17c.231-.115.65-.132 1.064-.132h.231c.45.006.566.035.73.076.33.079.336.292.307 1.02a15.99 15.99 0 00-.018.718c0 .06-.003.124-.003.192-.01.37-.022.792.24.965a.216.216 0 00.114.033c.091 0 .365 0 1.107-1.273.23-.41.428-.836.595-1.274.015-.026.06-.106.111-.137a.27.27 0 01.124-.03h1.781c.194 0 .327.03.352.105.044.119-.008.482-.82 1.583l-.364.479c-.737.966-.737 1.015.046 1.748z" fill="#fff"/></svg>