<svg width="20" height="20" fill="none" xmlns="http://www.w3.org/2000/svg"><g clip-path="url(#clip0_256_53)"><path d="M5.286 17.128l.327.162c1.362.808 2.888 1.185 4.414 1.185 4.796 0 8.72-3.878 8.72-8.618 0-2.262-.927-4.47-2.562-6.086a8.708 8.708 0 00-6.158-2.532c-4.796 0-8.72 3.878-8.665 8.672 0 1.616.49 3.178 1.308 4.524l.218.323-.872 3.178 3.27-.808z" fill="#1A5AA5"/><path d="M17.112 2.909C15.259 1.024 12.698 0 10.082 0 4.523 0 .055 4.47.109 9.91c0 1.724.49 3.394 1.308 4.902L0 19.93l5.286-1.346c1.472.808 3.106 1.184 4.741 1.184 5.505 0 9.973-4.47 9.973-9.91a9.717 9.717 0 00-2.888-6.948zm-7.03 15.189c-1.472 0-2.943-.377-4.196-1.131l-.327-.162-3.161.808.817-3.07-.218-.323C.6 10.396 1.744 5.333 5.667 2.963c3.924-2.37 8.993-1.239 11.39 2.639 2.398 3.878 1.254 8.887-2.67 11.257-1.253.808-2.78 1.239-4.305 1.239zm4.796-5.979l-.6-.269s-.872-.377-1.417-.646c-.054 0-.109-.054-.163-.054a.794.794 0 00-.382.108s-.054.053-.817.915a.3.3 0 01-.273.162h-.054a.416.416 0 01-.218-.108l-.273-.108c-.6-.269-1.144-.592-1.58-1.023-.11-.108-.273-.216-.382-.323-.381-.377-.763-.808-1.035-1.293l-.054-.108c-.055-.053-.055-.107-.11-.215 0-.108 0-.215.055-.27 0 0 .218-.269.381-.43.11-.108.164-.27.273-.377.109-.162.164-.377.109-.539-.054-.27-.708-1.723-.872-2.047-.109-.161-.218-.215-.381-.269h-.6c-.109 0-.218.054-.327.054l-.054.054c-.11.054-.218.161-.327.215-.11.108-.164.216-.273.323a2.727 2.727 0 00-.6 1.67c0 .431.11.862.273 1.239l.055.162a8.977 8.977 0 002.016 2.746l.218.216c.164.162.327.27.436.43a9.775 9.775 0 003.924 2.048c.163.053.381.053.545.107h.545c.272 0 .6-.107.817-.215.164-.108.273-.108.382-.216l.109-.107c.109-.108.218-.162.327-.27.109-.107.218-.215.272-.323.11-.215.164-.485.218-.754v-.377s-.054-.054-.163-.108z" fill="#fff"/></g><defs><clipPath id="clip0_256_53"><path fill="#fff" transform="rotate(-90 10 10)" d="M0 0h20v20H0z"/></clipPath></defs></svg>