<svg width="30" height="30" viewBox="0 0 30 30" fill="none" xmlns="http://www.w3.org/2000/svg">
<path fill-rule="evenodd" clip-rule="evenodd" d="M9.69813 7.20937C10.3925 6.50973 11.2185 5.95434 12.1284 5.57517C13.0383 5.19599 14.0142 5.00052 15 5C16.9875 5 18.895 5.79375 20.3019 7.20937C21.7109 8.62885 22.5011 10.5481 22.5 12.5481C22.5 16.0019 20.585 19.1281 18.59 21.4362C17.7493 22.4042 16.8378 23.3084 15.8631 24.1412C15.5094 24.4437 15.2131 24.6806 15 24.845C14.7875 24.6806 14.4906 24.4437 14.1369 24.1412C13.1622 23.3084 12.2507 22.4042 11.41 21.4362C9.415 19.1281 7.5 16.0019 7.5 12.5481C7.5 10.545 8.29125 8.625 9.69813 7.20937V7.20937ZM14.64 26.1356L15 25.625L15.36 26.1356C15.2546 26.2097 15.1289 26.2494 15 26.2494C14.8711 26.2494 14.7454 26.2097 14.64 26.1356V26.1356ZM14.64 26.1356L15 25.625L15.36 26.1356L15.3625 26.1344L15.3687 26.13L15.3875 26.1156L15.4613 26.0625C15.5238 26.0163 15.615 25.9487 15.73 25.86C15.96 25.6837 16.2862 25.4244 16.6756 25.0912C17.6978 24.2176 18.6535 23.2691 19.535 22.2537C21.6025 19.8625 23.75 16.4494 23.75 12.5475C23.75 10.2162 22.8287 7.97875 21.1887 6.32875C20.3781 5.51212 19.414 4.86386 18.3519 4.4213C17.2898 3.97873 16.1506 3.75059 15 3.75C13.8494 3.7505 12.7103 3.97855 11.6482 4.42101C10.586 4.86347 9.62191 5.51161 8.81125 6.32812C7.16964 7.9819 6.2489 10.2179 6.25 12.5481C6.25 16.4494 8.3975 19.8625 10.465 22.2537C11.3465 23.2691 12.3022 24.2176 13.3244 25.0912C13.7144 25.4244 14.04 25.6837 14.27 25.86C14.3828 25.9469 14.4968 26.0324 14.6119 26.1162L14.6319 26.13L14.6375 26.1344L14.64 26.1356V26.1356ZM12.5 12.5C12.5 11.837 12.7634 11.2011 13.2322 10.7322C13.7011 10.2634 14.337 10 15 10C15.663 10 16.2989 10.2634 16.7678 10.7322C17.2366 11.2011 17.5 11.837 17.5 12.5C17.5 13.163 17.2366 13.7989 16.7678 14.2678C16.2989 14.7366 15.663 15 15 15C14.337 15 13.7011 14.7366 13.2322 14.2678C12.7634 13.7989 12.5 13.163 12.5 12.5ZM15 8.75C14.0054 8.75 13.0516 9.14509 12.3483 9.84835C11.6451 10.5516 11.25 11.5054 11.25 12.5C11.25 13.4946 11.6451 14.4484 12.3483 15.1517C13.0516 15.8549 14.0054 16.25 15 16.25C15.9946 16.25 16.9484 15.8549 17.6516 15.1517C18.3549 14.4484 18.75 13.4946 18.75 12.5C18.75 11.5054 18.3549 10.5516 17.6516 9.84835C16.9484 9.14509 15.9946 8.75 15 8.75Z" fill="#F24E1E"/>
</svg>
