<svg width="30" height="30" fill="none" xmlns="http://www.w3.org/2000/svg"><path fill-rule="evenodd" clip-rule="evenodd" d="M9.698 7.21A7.475 7.475 0 0115 5c1.988 0 3.895.794 5.302 2.21a7.572 7.572 0 012.198 5.338c0 3.454-1.915 6.58-3.91 8.888A25.87 25.87 0 0115 24.845a25.87 25.87 0 01-3.59-3.409c-1.995-2.308-3.91-5.434-3.91-8.888 0-2.003.791-3.923 2.198-5.339zm4.942 18.926l.36-.511.36.51a.626.626 0 01-.72 0zm0 0l.36-.511.36.51h.003l.006-.005.018-.014.074-.053c.063-.047.154-.114.269-.203.23-.176.556-.436.946-.769a27.116 27.116 0 002.859-2.837c2.067-2.392 4.215-5.805 4.215-9.707a8.823 8.823 0 00-2.561-6.218A8.726 8.726 0 0015 3.75a8.726 8.726 0 00-6.189 2.578 8.823 8.823 0 00-2.561 6.22c0 3.901 2.148 7.315 4.215 9.706a27.116 27.116 0 002.86 2.837 23.35 23.35 0 001.287 1.025l.02.014.005.004.003.002zM12.5 12.5a2.5 2.5 0 115 0 2.5 2.5 0 01-5 0zM15 8.75a3.75 3.75 0 100 7.5 3.75 3.75 0 000-7.5z" fill="#F24E1E"/></svg>