<svg width="20" height="20" fill="none" xmlns="http://www.w3.org/2000/svg"><path fill-rule="evenodd" clip-rule="evenodd" d="M6.221.888C7.2.843 7.511.833 10.001.833c2.49 0 2.801.011 3.778.055.977.045 1.643.2 2.227.426a4.51 4.51 0 011.623 1.059c.467.457.827 1.01 1.057 1.622.226.583.381 1.25.426 2.225.045.98.055 1.29.055 3.78 0 2.49-.01 2.802-.055 3.78-.044.974-.2 1.64-.426 2.224a4.497 4.497 0 01-1.057 1.624 4.496 4.496 0 01-1.623 1.057c-.584.227-1.25.382-2.225.427-.979.045-1.29.055-3.78.055-2.49 0-2.802-.011-3.78-.055-.975-.044-1.641-.2-2.225-.427a4.498 4.498 0 01-1.624-1.057 4.494 4.494 0 01-1.057-1.623c-.226-.583-.381-1.25-.426-2.225C.844 12.8.834 12.49.834 10c0-2.49.01-2.802.055-3.778.044-.977.2-1.644.426-2.227a4.497 4.497 0 011.058-1.623 4.493 4.493 0 011.623-1.058c.583-.226 1.25-.38 2.225-.426zm7.484 1.65c-.967-.044-1.257-.053-3.704-.053-2.448 0-2.738.01-3.705.053-.894.041-1.379.19-1.702.316a2.846 2.846 0 00-1.054.685 2.843 2.843 0 00-.685 1.054c-.126.324-.275.809-.316 1.703-.044.967-.053 1.257-.053 3.704s.009 2.738.053 3.704c.04.894.19 1.38.316 1.703.146.397.38.758.685 1.054.296.304.656.538 1.054.685.323.126.808.275 1.702.316.967.044 1.256.053 3.705.053 2.448 0 2.737-.01 3.704-.053.894-.041 1.379-.19 1.702-.316a2.848 2.848 0 001.055-.685c.304-.296.538-.657.684-1.054.126-.324.276-.809.316-1.703.044-.966.054-1.257.054-3.704s-.01-2.737-.054-3.704c-.04-.894-.19-1.38-.316-1.703a2.847 2.847 0 00-.684-1.054 2.844 2.844 0 00-1.055-.685c-.323-.126-.808-.275-1.702-.316zM8.83 12.826a3.058 3.058 0 102.2-5.705 3.058 3.058 0 00-2.2 5.705zM6.669 6.668a4.712 4.712 0 116.663 6.664A4.712 4.712 0 016.67 6.668zm9.088-.678a1.116 1.116 0 00-.78-1.924 1.114 1.114 0 10.78 1.924z" fill="#545454"/></svg>