<svg width="24" height="24" fill="none" xmlns="http://www.w3.org/2000/svg"><g clip-path="url(#clip0_338:52)"><path d="M12 0c6.627 0 12 5.373 12 12s-5.373 12-12 12S0 18.627 0 12 5.373 0 12 0zm4.313 4.767c-.248-.015-.471.133-.64.395l-1.641 3.111a.903.903 0 00.183 1.027l.751.752a.368.368 0 01.078.214c-.288 1.115-1.162 2.144-1.934 2.852-.77.707-1.6 1.665-2.676 1.892-.133.037-.296.05-.391-.038l-.873-.889c-.301-.228-.737-.34-1.06-.152h-.014l-2.96 1.747c-.435.273-.48.8-.169 1.12l2.04 2.022c.3.31.7.413 1.09.413 1.718-.051 3.342-.895 4.676-1.762 2.19-1.593 4.199-3.569 5.46-5.956.483-1 1.052-2.278.997-3.395-.004-.42-.118-.832-.414-1.103l-2.04-2.04a.797.797 0 00-.463-.21z" fill="#17982D"/></g><defs><clipPath id="clip0_338:52"><path fill="#fff" d="M0 0h24v24H0z"/></clipPath></defs></svg>