<svg width="30" height="30" fill="none" xmlns="http://www.w3.org/2000/svg"><g clip-path="url(#clip0_233_346)"><path fill-rule="evenodd" clip-rule="evenodd" d="M26.25 22.5A3.75 3.75 0 0030 18.75V10a3.75 3.75 0 00-3.75-3.75H3.75A3.75 3.75 0 000 10v8.75a3.75 3.75 0 003.75 3.75h22.5zm-7.5-2.5h2.5v-6.25a1.25 1.25 0 012.5 0V20h2.5a1.25 1.25 0 001.25-1.25V10a1.25 1.25 0 00-1.25-1.25H3.75A1.25 1.25 0 002.5 10v8.75A1.25 1.25 0 003.75 20h2.5v-3.75a1.25 1.25 0 112.5 0V20h2.5v-6.25a1.25 1.25 0 012.5 0V20h2.5v-3.75a1.25 1.25 0 012.5 0V20z" fill="#BFD4ED"/></g><defs><clipPath id="clip0_233_346"><path fill="#fff" d="M0 0h30v30H0z"/></clipPath></defs></svg>