<svg width="30" height="30" viewBox="0 0 30 30" fill="none" xmlns="http://www.w3.org/2000/svg">
<g clip-path="url(#clip0_233_346)">
<path fill-rule="evenodd" clip-rule="evenodd" d="M26.25 22.5C27.2446 22.5 28.1984 22.1049 28.9017 21.4017C29.6049 20.6984 30 19.7446 30 18.75L30 10C30 9.00544 29.6049 8.05161 28.9017 7.34835C28.1984 6.64509 27.2446 6.25 26.25 6.25L3.75 6.25C2.75544 6.25 1.80161 6.64509 1.09835 7.34835C0.395088 8.05161 0 9.00544 0 10V18.75C0 19.7446 0.395088 20.6984 1.09835 21.4017C1.80161 22.1049 2.75544 22.5 3.75 22.5L26.25 22.5ZM18.75 20H21.25V13.75C21.25 13.4185 21.3817 13.1005 21.6161 12.8661C21.8505 12.6317 22.1685 12.5 22.5 12.5C22.8315 12.5 23.1495 12.6317 23.3839 12.8661C23.6183 13.1005 23.75 13.4185 23.75 13.75V20H26.25C26.5815 20 26.8995 19.8683 27.1339 19.6339C27.3683 19.3995 27.5 19.0815 27.5 18.75V10C27.5 9.66848 27.3683 9.35054 27.1339 9.11612C26.8995 8.88169 26.5815 8.75 26.25 8.75L3.75 8.75C3.41848 8.75 3.10054 8.88169 2.86612 9.11612C2.63169 9.35054 2.5 9.66848 2.5 10V18.75C2.5 19.0815 2.63169 19.3995 2.86612 19.6339C3.10054 19.8683 3.41848 20 3.75 20H6.25V16.25C6.25 15.9185 6.38169 15.6005 6.61612 15.3661C6.85054 15.1317 7.16848 15 7.5 15C7.83152 15 8.14946 15.1317 8.38388 15.3661C8.61831 15.6005 8.75 15.9185 8.75 16.25V20H11.25V13.75C11.25 13.4185 11.3817 13.1005 11.6161 12.8661C11.8505 12.6317 12.1685 12.5 12.5 12.5C12.8315 12.5 13.1495 12.6317 13.3839 12.8661C13.6183 13.1005 13.75 13.4185 13.75 13.75V20H16.25V16.25C16.25 15.9185 16.3817 15.6005 16.6161 15.3661C16.8505 15.1317 17.1685 15 17.5 15C17.8315 15 18.1495 15.1317 18.3839 15.3661C18.6183 15.6005 18.75 15.9185 18.75 16.25V20Z" fill="#BFD4ED"/>
</g>
<defs>
<clipPath id="clip0_233_346">
<rect width="30" height="30" fill="white"/>
</clipPath>
</defs>
</svg>
