<svg width="55" height="55" fill="none" xmlns="http://www.w3.org/2000/svg"><g clip-path="url(#clip0_233_357)"><path d="M39.254 39.984s2.5-4.33-.387-5.997a24.48 24.48 0 01-3.14-2.16c-1.928.273-4.188-.146-6.353-1.396l-.361-.208 3.864-1.06c-.413-.45-.796-.922-1.17-1.407L27.36 28.92c-.497-.44-.924-.9-1.292-1.362l4.638-1.267a19.21 19.21 0 01-.82-1.513l-4.73 1.292a6.905 6.905 0 01-.515-1.607l4.621-1.238a15.654 15.654 0 01-.418-1.608l-4.258 1.14c.085-.547.214-1.07.489-1.546.708-1.226 1.99-1.948 3.524-2.237.003-.172-.009-.352.002-.538l-1.566-2.386c-2.01.648-5.11.149-8.263-1.422l-.097.002-1.01-.584s-2.277.61-5.194 5.662c-.475.823-.892 1.545-1.192 2.199l4.272 2.466c1.588.917 3.276 2.392 4.924 3.805 1.486 1.359 3.047 2.722 4.346 3.472l14.434 8.333zm-29.09-12.946s-.838-.484.425-3.604l4.128 2.384c2.886 1.666 6.383 5.61 9.27 7.276l14.03 8.1a3.28 3.28 0 01-3.316.01L10.163 27.038z" fill="#1A5AA5"/></g><defs><clipPath id="clip0_233_357"><path fill="#fff" transform="rotate(30 10 37.32)" d="M0 0h40v40H0z"/></clipPath></defs></svg>