<svg width="30" height="30" viewBox="0 0 30 30" fill="none" xmlns="http://www.w3.org/2000/svg" style="transform: scale(-1,1);">
<g clip-path="url(#clip0_338_317)">
<path d="M15 28.125C18.481 28.125 21.8194 26.7422 24.2808 24.2808C26.7422 21.8194 28.125 18.481 28.125 15C28.125 11.519 26.7422 8.18064 24.2808 5.71922C21.8194 3.25781 18.481 1.875 15 1.875C11.519 1.875 8.18064 3.25781 5.71922 5.71922C3.25781 8.18064 1.875 11.519 1.875 15C1.875 18.481 3.25781 21.8194 5.71922 24.2808C8.18064 26.7422 11.519 28.125 15 28.125ZM15 30C11.0218 30 7.20644 28.4196 4.3934 25.6066C1.58035 22.7936 0 18.9782 0 15C0 11.0218 1.58035 7.20644 4.3934 4.3934C7.20644 1.58035 11.0218 0 15 0C18.9782 0 22.7936 1.58035 25.6066 4.3934C28.4196 7.20644 30 11.0218 30 15C30 18.9782 28.4196 22.7936 25.6066 25.6066C22.7936 28.4196 18.9782 30 15 30Z" fill="#FF9A62"/>
<path d="M9.43086 9.31866C9.44422 9.33161 9.45674 9.34539 9.46836 9.35992L15.9802 17.6568L19.9046 13.7305C20.1712 13.4821 20.5238 13.3469 20.8881 13.3533C21.2524 13.3598 21.6 13.5073 21.8577 13.765C22.1153 14.0226 22.2629 14.3702 22.2693 14.7346C22.2757 15.0989 22.1405 15.4515 21.8921 15.718L16.9309 20.6812C16.7972 20.8146 16.6381 20.9197 16.4629 20.9903C16.2877 21.0608 16.1001 21.0954 15.9113 21.0919C15.7225 21.0884 15.5364 21.0469 15.3639 20.9699C15.1915 20.8929 15.0364 20.7819 14.9077 20.6437L7.42273 11.2874C7.16786 11.0199 7.02852 10.6628 7.03481 10.2934C7.04111 9.92399 7.19255 9.57188 7.45638 9.31322C7.72022 9.05455 8.07526 8.91012 8.44474 8.91114C8.81422 8.91216 9.16845 9.05855 9.43086 9.31866Z" fill="#FF9A62"/>
</g>
<defs>
<clipPath id="clip0_338_317">
<rect width="30" height="30" fill="white"/>
</clipPath>
</defs>
</svg>
