<svg width="30" height="30" fill="none" xmlns="http://www.w3.org/2000/svg" transform="scale(-1 1)"><g clip-path="url(#clip0_338_317)" fill="#FF9A62"><path d="M15 28.125a13.125 13.125 0 100-26.25 13.125 13.125 0 000 26.25zM15 30a15 15 0 110-30 15 15 0 010 30z"/><path d="M9.43 9.319a.441.441 0 01.038.04l6.512 8.298 3.925-3.927a1.406 1.406 0 011.987 1.988l-4.961 4.963a1.407 1.407 0 01-2.023-.037l-7.485-9.357A1.406 1.406 0 019.43 9.32z"/></g><defs><clipPath id="clip0_338_317"><path fill="#fff" d="M0 0h30v30H0z"/></clipPath></defs></svg>