<svg width="20" height="20" fill="none" xmlns="http://www.w3.org/2000/svg"><g clip-path="url(#clip0_256:36)"><path d="M19.548 4.82a7.17 7.17 0 01-.908 1.882l.016-.025c-.374.623-.82 1.342-1.338 2.157-.444.644-.68.977-.706 1a1.068 1.068 0 00-.222.515l-.001.006c.021.17.1.327.223.446l.334.371c1.783 1.833 2.786 3.097 3.009 3.79a.74.74 0 01-.094.691l.002-.002a.805.805 0 01-.653.24h.003-2.197c-.28 0-.539-.098-.741-.261l.002.002a5.772 5.772 0 01-.792-.79l-.008-.01c-.384-.434-.724-.8-1.021-1.096-.99-.941-1.721-1.412-2.192-1.412a.657.657 0 00-.43.113l.002-.002a.638.638 0 00-.133.487v-.004c-.032.39-.043.78-.032 1.17v-.015.966a.649.649 0 01-.221.631h-.001a2.646 2.646 0 01-1.348.223l.011.001a6.935 6.935 0 01-3.562-1.056l.029.016a9.942 9.942 0 01-3.098-2.937l-.022-.035a21.965 21.965 0 01-2.06-3.327l-.058-.128A20.547 20.547 0 01.314 6.092l-.05-.155a5.538 5.538 0 01-.258-1.279l-.002-.02c0-.422.248-.632.743-.632H2.94a.882.882 0 01.616.187l-.002-.001a1.5 1.5 0 01.35.656l.003.01A21.184 21.184 0 005.23 7.871l-.056-.114c.375.76.828 1.48 1.353 2.146l-.02-.026c.445.546.792.819 1.04.819h.027a.333.333 0 00.29-.166v-.002c.08-.209.111-.433.093-.656v.005-3.232a2.676 2.676 0 00-.267-1.056l.007.016a2.463 2.463 0 00-.375-.58l.002.004a.916.916 0 01-.26-.516v-.005c0-.141.065-.269.167-.352v-.001a.565.565 0 01.384-.148h3.462a.528.528 0 01.465.185h.001c.106.195.152.416.133.636v-.004 4.311c-.014.17.026.34.113.487l-.002-.004a.334.334 0 00.278.149.788.788 0 00.393-.135l-.002.001a2.96 2.96 0 00.59-.534l.004-.004c.515-.583.976-1.21 1.38-1.875l.032-.058c.286-.475.596-1.06.877-1.661l.052-.123.371-.743a.935.935 0 01.931-.633h-.002 2.192c.592 0 .815.273.667.818z" fill="#545454"/></g><defs><clipPath id="clip0_256:36"><path fill="#fff" d="M0 0h20v20H0z"/></clipPath></defs></svg>