<svg width="20" height="20" fill="none" xmlns="http://www.w3.org/2000/svg"><path d="M13.935 11.717c-.212-.11-1.273-.63-1.47-.7-.197-.074-.342-.109-.485.11-.144.217-.554.7-.683.846-.125.144-.252.162-.465.054-1.266-.632-2.096-1.129-2.93-2.56-.22-.381.221-.354.633-1.176.07-.145.035-.268-.02-.377-.054-.11-.484-1.168-.663-1.6-.174-.42-.354-.36-.485-.369-.125-.008-.267-.008-.412-.008a.797.797 0 00-.574.268c-.197.217-.754.738-.754 1.797s.771 2.084.877 2.228c.11.145 1.517 2.317 3.68 3.252 1.367.59 1.902.641 2.586.54.415-.063 1.273-.52 1.45-1.026.178-.504.178-.936.126-1.025-.053-.096-.198-.15-.41-.254z" fill="#545454"/><path d="M18.07 6.61A8.753 8.753 0 0010 1.25h-.039a8.73 8.73 0 00-8.71 8.791 8.777 8.777 0 00.937 3.904v2.97c0 .495.402.898.898.898h2.97a8.778 8.778 0 003.905.937h.041a8.76 8.76 0 003.373-.67 8.683 8.683 0 002.79-1.86 8.73 8.73 0 002.586-6.182 8.716 8.716 0 00-.68-3.429zm-2.95 8.554A7.227 7.227 0 0110 17.266h-.033a7.29 7.29 0 01-3.381-.85l-.164-.088h-2.75v-2.75l-.088-.164a7.292 7.292 0 01-.85-3.38A7.22 7.22 0 014.836 4.88a7.21 7.21 0 015.133-2.147h.033a7.23 7.23 0 015.14 2.127 7.236 7.236 0 012.127 5.172 7.238 7.238 0 01-2.15 5.131z" fill="#545454"/></svg>